<svg width="295" height="330" viewBox="0 0 295 330" fill="none" xmlns="http://www.w3.org/2000/svg">
<path d="M134.756 33.4229L132.088 34.7958L132.096 34.8112L132.104 34.8265L134.756 33.4229ZM134.756 116.26L132.104 114.856L132.096 114.871L132.088 114.887L134.756 116.26ZM111.245 140.21L109.761 137.603L109.753 137.607L109.745 137.612L111.245 140.21ZM8.19336 116.26L5.542 117.663L5.55001 117.679L5.55819 117.694L8.19336 116.26ZM58.291 105.713L56.557 108.161L56.6145 108.202L56.6739 108.24L58.291 105.713ZM84.8779 105.713L86.5911 108.176L86.6265 108.151L86.6611 108.125L84.8779 105.713ZM92.3486 96.0449L89.6072 94.8265L89.5881 94.8695L89.5704 94.913L92.3486 96.0449ZM92.3486 53.6377L89.5704 54.7696L89.5881 54.8131L89.6072 54.8561L92.3486 53.6377ZM84.6582 44.1895L82.9241 46.6375L82.9588 46.6621L82.9941 46.6856L84.6582 44.1895ZM58.291 44.1895L59.9551 46.6856L59.9904 46.6621L60.0251 46.6375L58.291 44.1895ZM160.024 213.599L157.389 212.165L157.381 212.18L157.373 212.195L160.024 213.599ZM183.975 189.648L182.506 187.033L182.498 187.037L182.49 187.041L183.975 189.648ZM263.296 189.648L261.796 192.246L261.804 192.251L261.811 192.255L263.296 189.648ZM286.807 213.599L284.139 214.972L284.147 214.987L284.155 215.002L286.807 213.599ZM286.807 296.436L284.155 295.032L284.147 295.047L284.139 295.063L286.807 296.436ZM263.516 320.386L262.015 317.788L263.516 320.386ZM160.024 296.436L157.373 297.839L157.381 297.854L157.389 297.869L160.024 296.436ZM211.88 285.889L210.193 288.369L210.228 288.393L210.263 288.415L211.88 285.889ZM238.906 285.889L240.671 288.315L240.68 288.308L240.689 288.301L238.906 285.889ZM245.498 276.221L242.622 275.368L242.607 275.418L242.594 275.468L245.498 276.221ZM236.709 224.365L234.975 226.813L235.01 226.838L235.045 226.861L236.709 224.365ZM210.342 224.365L212.006 226.861L212.041 226.838L212.076 226.813L210.342 224.365ZM241.982 51.001L244.527 52.5906L246.27 49.8001L243.331 48.3211L241.982 51.001ZM85.7568 301.05L84.4084 303.73L86.8518 304.959L88.3011 302.639L85.7568 301.05ZM51.2598 283.691L48.7155 282.102L46.9721 284.892L49.9113 286.371L51.2598 283.691ZM207.485 33.6426L208.834 30.9627L206.39 29.7332L204.941 32.053L207.485 33.6426ZM3.2832 83.5205V66.6016H-2.7168V83.5205H3.2832ZM3.2832 66.6016C3.2832 54.8932 5.81803 44.3214 10.8447 34.8265L5.542 32.0192C0.0218124 42.4462 -2.7168 53.9935 -2.7168 66.6016H3.2832ZM10.8447 34.8265C15.8308 25.4083 23.3171 17.826 33.4083 12.0796L30.4393 6.8657C19.4368 13.131 11.1028 21.5155 5.542 32.0192L10.8447 34.8265ZM33.4083 12.0796C43.3895 6.39587 55.9535 3.46387 71.2549 3.46387V-2.53613C55.2086 -2.53613 41.5519 0.537727 30.4393 6.8657L33.4083 12.0796ZM71.2549 3.46387C87.0125 3.46387 99.7906 6.40223 109.761 12.0796L112.73 6.8657C101.606 0.531364 87.7238 -2.53613 71.2549 -2.53613V3.46387ZM109.761 12.0796C119.846 17.8226 127.25 25.3954 132.088 34.7958L137.423 32.0499C132.008 21.5284 123.738 13.1344 112.73 6.8657L109.761 12.0796ZM132.104 34.8265C137.131 44.3214 139.666 54.8932 139.666 66.6016H145.666C145.666 53.9935 142.927 42.4462 137.407 32.0192L132.104 34.8265ZM139.666 66.6016V83.5205H145.666V66.6016H139.666ZM139.666 83.5205C139.666 94.9231 137.137 105.351 132.104 114.856L137.407 117.663C142.922 107.247 145.666 95.8484 145.666 83.5205H139.666ZM132.088 114.887C127.25 124.287 119.846 131.86 109.761 137.603L112.73 142.817C123.738 136.548 132.008 128.154 137.423 117.633L132.088 114.887ZM109.745 137.612C99.9231 143.284 87.3699 146.219 71.9141 146.219V152.219C88.0988 152.219 101.766 149.148 112.745 142.808L109.745 137.612ZM71.9141 146.219C56.3085 146.219 43.6018 143.282 33.6281 137.603L30.659 142.817C41.7791 149.149 55.5861 152.219 71.9141 152.219V146.219ZM33.6281 137.603C23.5309 131.853 15.9627 124.262 10.8285 114.826L5.55819 117.694C11.2639 128.18 19.6624 136.555 30.659 142.817L33.6281 137.603ZM10.8447 114.856C5.81238 105.351 3.2832 94.9231 3.2832 83.5205H-2.7168C-2.7168 95.8484 0.027462 107.247 5.542 117.663L10.8447 114.856ZM44.7441 66.6016V83.5205H50.7441V66.6016H44.7441ZM44.7441 83.5205C44.7441 88.3282 45.7085 92.9187 47.6394 97.2633L53.1223 94.8265C51.5376 91.261 50.7441 87.5019 50.7441 83.5205H44.7441ZM47.6394 97.2633C49.6153 101.709 52.5989 105.357 56.557 108.161L60.0251 103.265C56.9518 101.088 54.6621 98.291 53.1223 94.8265L47.6394 97.2633ZM56.6739 108.24C60.9128 110.953 65.9706 112.229 71.6943 112.229V106.229C66.8712 106.229 62.9935 105.161 59.9082 103.186L56.6739 108.24ZM71.6943 112.229C77.5328 112.229 82.5805 110.966 86.5911 108.176L83.1647 103.25C80.4371 105.148 76.6957 106.229 71.6943 106.229V112.229ZM86.6611 108.125C90.4822 105.301 93.312 101.632 95.1269 97.1768L89.5704 94.913C88.1626 98.3684 86.012 101.144 83.0948 103.3L86.6611 108.125ZM95.0901 97.2633C97.021 92.9187 97.9854 88.3282 97.9854 83.5205H91.9854C91.9854 87.5019 91.1919 91.261 89.6072 94.8265L95.0901 97.2633ZM97.9854 83.5205V66.6016H91.9854V83.5205H97.9854ZM97.9854 66.6016C97.9854 61.5296 97.0321 56.7889 95.0901 52.4193L89.6072 54.8561C91.1808 58.3966 91.9854 62.2985 91.9854 66.6016H97.9854ZM95.1269 52.5058C93.2917 48.0011 90.3432 44.3739 86.3223 41.6933L82.9941 46.6856C86.0045 48.6925 88.1829 51.3641 89.5704 54.7696L95.1269 52.5058ZM86.3923 41.7414C82.2523 38.8089 77.1347 37.4541 71.2549 37.4541V43.4541C76.2149 43.4541 80.0329 44.5895 82.9241 46.6375L86.3923 41.7414ZM71.2549 37.4541C65.6276 37.4541 60.67 38.828 56.557 41.7414L60.0251 46.6375C62.9433 44.5704 66.6282 43.4541 71.2549 43.4541V37.4541ZM56.6269 41.6933C52.6264 44.3603 49.6221 47.9582 47.6394 52.4193L53.1223 54.8561C54.6552 51.407 56.9244 48.7061 59.9551 46.6856L56.6269 41.6933ZM47.6394 52.4193C45.6974 56.7889 44.7441 61.5296 44.7441 66.6016H50.7441C50.7441 62.2985 51.5487 58.3966 53.1223 54.8561L47.6394 52.4193ZM155.114 263.477V246.558H149.114V263.477H155.114ZM155.114 246.558C155.114 235.002 157.646 224.502 162.676 215.002L157.373 212.195C151.856 222.617 149.114 234.09 149.114 246.558H155.114ZM162.66 215.032C167.794 205.597 175.362 198.005 185.459 192.255L182.49 187.041C171.493 193.303 163.095 201.679 157.389 212.165L162.66 215.032ZM185.444 192.264C195.58 186.571 208.226 183.64 223.525 183.64V177.64C207.477 177.64 193.756 180.714 182.506 187.033L185.444 192.264ZM223.525 183.64C239.286 183.64 251.981 186.579 261.796 192.246L264.796 187.05C253.81 180.706 239.992 177.64 223.525 177.64V183.64ZM261.811 192.255C271.897 197.998 279.301 205.571 284.139 214.972L289.474 212.226C284.059 201.704 275.789 193.31 264.78 187.041L261.811 192.255ZM284.155 215.002C289.185 224.502 291.717 235.002 291.717 246.558H297.717C297.717 234.09 294.975 222.617 289.458 212.195L284.155 215.002ZM291.717 246.558V263.477H297.717V246.558H291.717ZM291.717 263.477C291.717 275.032 289.185 285.532 284.155 295.032L289.458 297.839C294.975 287.417 297.717 275.944 297.717 263.477H291.717ZM284.139 295.063C279.295 304.474 271.955 312.048 262.015 317.788L265.016 322.984C275.877 316.712 284.064 308.319 289.474 297.808L284.139 295.063ZM262.015 317.788C252.194 323.46 239.64 326.395 224.185 326.395V332.395C240.369 332.395 254.037 329.324 265.016 322.984L262.015 317.788ZM224.185 326.395C208.581 326.395 195.793 323.459 185.663 317.77L182.725 323.001C193.983 329.324 207.854 332.395 224.185 332.395V326.395ZM185.663 317.77C175.42 312.017 167.788 304.426 162.66 295.002L157.389 297.869C163.101 308.367 171.581 316.743 182.725 323.001L185.663 317.77ZM162.676 295.032C157.646 285.532 155.114 275.032 155.114 263.477H149.114C149.114 275.944 151.856 287.417 157.373 297.839L162.676 295.032ZM196.795 246.558V263.477H202.795V246.558H196.795ZM196.795 263.477C196.795 268.525 198.023 273.275 200.468 277.678L205.713 274.764C203.765 271.256 202.795 267.51 202.795 263.477H196.795ZM200.468 277.678C202.888 282.033 206.135 285.61 210.193 288.369L213.567 283.408C210.301 281.187 207.688 278.318 205.713 274.764L200.468 277.678ZM210.263 288.415C214.413 291.072 219.004 292.404 223.965 292.404V286.404C220.137 286.404 216.671 285.393 213.497 283.362L210.263 288.415ZM223.965 292.404C230.942 292.404 236.689 291.211 240.671 288.315L237.142 283.462C234.679 285.254 230.464 286.404 223.965 286.404V292.404ZM240.689 288.301C244.596 285.414 247.199 281.612 248.402 276.974L242.594 275.468C241.746 278.74 239.955 281.383 237.123 283.476L240.689 288.301ZM248.374 277.073C249.636 272.815 250.256 268.277 250.256 263.477H244.256C244.256 267.758 243.704 271.716 242.622 275.368L248.374 277.073ZM250.256 263.477V246.558H244.256V263.477H250.256ZM250.256 246.558C250.256 241.618 249.297 236.953 247.361 232.595L241.878 235.032C243.457 238.585 244.256 242.415 244.256 246.558H250.256ZM247.361 232.595C245.378 228.134 242.374 224.536 238.373 221.869L235.045 226.861C238.076 228.882 240.345 231.583 241.878 235.032L247.361 232.595ZM238.443 221.917C234.316 218.994 229.279 217.63 223.525 217.63V223.63C228.319 223.63 232.07 224.756 234.975 226.813L238.443 221.917ZM223.525 217.63C217.772 217.63 212.735 218.994 208.608 221.917L212.076 226.813C214.98 224.756 218.732 223.63 223.525 223.63V217.63ZM208.678 221.869C204.677 224.536 201.673 228.134 199.69 232.595L205.173 235.032C206.706 231.583 208.975 228.882 212.006 226.861L208.678 221.869ZM199.69 232.595C197.754 236.953 196.795 241.618 196.795 246.558H202.795C202.795 242.415 203.594 238.585 205.173 235.032L199.69 232.595ZM239.438 49.4114L83.2126 299.46L88.3011 302.639L244.527 52.5906L239.438 49.4114ZM87.1053 298.37L52.6082 281.012L49.9113 286.371L84.4084 303.73L87.1053 298.37ZM53.804 285.281L210.03 35.2322L204.941 32.053L48.7155 282.102L53.804 285.281ZM206.137 36.3224L240.634 53.6808L243.331 48.3211L208.834 30.9627L206.137 36.3224Z" fill="white" fill-opacity="0.8"/>
</svg>
