<svg width="550" height="221" viewBox="0 0 550 221" fill="none" xmlns="http://www.w3.org/2000/svg">
<path fill-rule="evenodd" clip-rule="evenodd" d="M42.0728 217V46.0001H0.0727539V3.00008H94.6728V217H42.0728ZM44.0728 44.0001V215H92.6728V5.00008H2.07275V44.0001H44.0728ZM156.527 214.83L156.511 214.825C142.131 210.774 129.716 205.086 119.3 197.734L117.877 196.73L138.943 155.915L140.827 157.281C148.64 162.945 157.647 167.455 167.868 170.797C178.275 174.135 188.768 175.8 199.353 175.8C211.318 175.8 220.472 173.443 227.022 168.951C233.47 164.529 236.653 158.451 236.653 150.5C236.653 145.466 235.355 141.058 232.789 137.21C230.345 133.543 225.836 130.542 218.869 128.413L218.861 128.41L218.854 128.408C212.14 126.298 202.477 125.2 189.753 125.2H133.862L145.028 3.00008H276.953V46.0001H189.308L186.114 81.9001H201.153C222.101 81.9001 239.114 84.815 252.072 90.7752C265.159 96.504 274.819 104.45 280.874 114.681C286.873 124.817 289.853 136.275 289.853 149C289.853 161.751 286.661 173.6 280.28 184.51L280.275 184.517L280.271 184.524C273.841 195.31 263.926 204.048 250.659 210.783L250.648 210.789C237.482 217.372 220.748 220.6 200.553 220.6C185.778 220.6 171.106 218.677 156.543 214.834L156.527 214.83ZM251.253 92.6001C238.653 86.8001 221.953 83.9001 201.153 83.9001H183.928L187.478 44.0001H274.953V5.00008H146.853L136.053 123.2H189.753C202.553 123.2 212.453 124.3 219.453 126.5C226.653 128.7 231.653 131.9 234.453 136.1C237.253 140.3 238.653 145.1 238.653 150.5C238.653 159.1 235.153 165.8 228.153 170.6C221.153 175.4 211.553 177.8 199.353 177.8C188.553 177.8 177.853 176.1 167.253 172.7C157.56 169.531 148.91 165.32 141.302 160.067C140.747 159.683 140.197 159.294 139.653 158.9L120.453 196.1C130.653 203.3 142.853 208.9 157.053 212.9C171.453 216.7 185.953 218.6 200.553 218.6C220.553 218.6 236.953 215.4 249.753 209C262.753 202.4 272.353 193.9 278.553 183.5C284.753 172.9 287.853 161.4 287.853 149C287.853 136.6 284.953 125.5 279.153 115.7C273.353 105.9 264.053 98.2001 251.253 92.6001ZM331.154 217L477.285 3.00008H517.829L371.698 217H331.154ZM325.209 113.213L325.193 113.203C317.072 108.206 310.634 101.235 305.878 92.3434L305.865 92.3191L305.853 92.2945C301.289 83.1668 299.042 72.5493 299.042 60.5001C299.042 48.4525 301.288 37.9269 305.861 28.9891L305.869 28.9729L305.878 28.9568C310.634 20.0656 317.072 13.0944 325.193 8.09678C333.343 3.08128 342.715 0.600098 353.241 0.600098C363.768 0.600098 373.139 3.08128 381.29 8.09678C389.419 13.0995 395.765 20.0816 400.322 28.9891C404.895 37.9269 407.142 48.4525 407.142 60.5001C407.142 72.5493 404.894 83.1668 400.33 92.2945L400.326 92.3028L400.322 92.311C395.765 101.219 389.419 108.201 381.29 113.203L381.274 113.213L381.257 113.223C373.112 118.026 363.753 120.4 353.241 120.4C342.73 120.4 333.371 118.026 325.226 113.223L325.209 113.213ZM367.524 36.7766L367.514 36.7626C363.871 31.6616 359.164 29.2001 353.241 29.2001C347.538 29.2001 342.807 31.6477 338.945 36.7956C335.323 41.6891 333.341 49.4729 333.341 60.5001C333.341 71.2998 335.312 79.1061 338.956 84.2188C342.816 89.3569 347.543 91.8001 353.241 91.8001C359.189 91.8001 363.894 89.416 367.524 84.5237C371.166 79.4156 373.142 71.5124 373.142 60.5001C373.142 49.469 371.159 41.6837 367.534 36.7905L367.524 36.7766ZM369.142 85.7001C365.142 91.1001 359.841 93.8001 353.241 93.8001C346.841 93.8001 341.542 91.0001 337.341 85.4001C333.341 79.8001 331.341 71.5001 331.341 60.5001C331.341 49.3001 333.341 41.0001 337.341 35.6001C341.542 30.0001 346.841 27.2001 353.241 27.2001C359.841 27.2001 365.142 30.0001 369.142 35.6001C373.142 41.0001 375.142 49.3001 375.142 60.5001C375.142 71.7001 373.142 80.1001 369.142 85.7001ZM467.719 212.219L467.693 212.203C459.564 207.201 453.218 200.219 448.661 191.311L448.657 191.303L448.653 191.295C444.089 182.167 441.842 171.549 441.842 159.5C441.842 147.453 444.088 136.927 448.661 127.989C453.218 119.082 459.564 112.1 467.693 107.097L467.703 107.091L467.712 107.085C476.046 102.085 485.406 99.6001 495.741 99.6001C506.46 99.6001 515.933 102.078 524.09 107.097C532.219 112.1 538.565 119.082 543.122 127.989C547.695 136.927 549.942 147.453 549.942 159.5C549.942 171.549 547.694 182.167 543.13 191.295L543.126 191.303L543.122 191.311C538.565 200.219 532.219 207.201 524.09 212.203L524.074 212.213L524.057 212.223C515.906 217.03 506.445 219.4 495.741 219.4C485.422 219.4 476.073 217.023 467.745 212.234L467.719 212.219ZM334.941 215H370.642L514.042 5.00008H478.342L334.941 215ZM511.642 184.7C515.641 179.1 517.642 170.7 517.642 159.5C517.642 148.5 515.641 140.2 511.642 134.6C507.642 129 502.342 126.2 495.741 126.2C489.342 126.2 484.042 129 479.842 134.6C475.842 140 473.842 148.3 473.842 159.5C473.842 170.7 475.842 179.1 479.842 184.7C484.042 190.1 489.342 192.8 495.741 192.8C502.342 192.8 507.642 190.1 511.642 184.7ZM481.445 183.505C485.292 188.434 490.019 190.8 495.741 190.8C501.689 190.8 506.395 188.416 510.025 183.523C513.666 178.415 515.642 170.512 515.642 159.5C515.642 148.687 513.666 140.875 510.014 135.763C506.371 130.662 501.664 128.2 495.741 128.2C490.039 128.2 485.309 130.647 481.447 135.793C477.824 140.686 475.842 148.471 475.842 159.5C475.842 170.499 477.812 178.396 481.445 183.505ZM326.241 111.5C334.042 116.1 343.042 118.4 353.241 118.4C363.441 118.4 372.441 116.1 380.241 111.5C388.041 106.7 394.142 100 398.542 91.4001C402.941 82.6001 405.142 72.3001 405.142 60.5001C405.142 48.7001 402.941 38.5001 398.542 29.9001C394.142 21.3001 388.041 14.6001 380.241 9.80009C372.441 5.0001 363.441 2.6001 353.241 2.6001C343.042 2.6001 334.042 5.0001 326.241 9.80009C318.441 14.6001 312.241 21.3001 307.642 29.9001C303.241 38.5001 301.042 48.7001 301.042 60.5001C301.042 72.3001 303.241 82.6001 307.642 91.4001C312.241 100 318.441 106.7 326.241 111.5ZM468.741 210.5C476.741 215.1 485.741 217.4 495.741 217.4C506.142 217.4 515.242 215.1 523.042 210.5C530.842 205.7 536.942 199 541.342 190.4C545.742 181.6 547.942 171.3 547.942 159.5C547.942 147.7 545.742 137.5 541.342 128.9C536.942 120.3 530.842 113.6 523.042 108.8C515.242 104 506.142 101.6 495.741 101.6C485.741 101.6 476.741 104 468.741 108.8C460.941 113.6 454.842 120.3 450.441 128.9C446.042 137.5 443.842 147.7 443.842 159.5C443.842 171.3 446.042 181.6 450.441 190.4C454.842 199 460.941 205.7 468.741 210.5Z" fill="white" fill-opacity="0.6"/>
</svg>