<svg width="296" height="330" viewBox="0 0 296 330" fill="none" xmlns="http://www.w3.org/2000/svg">
<path d="M135.256 33.4229L132.588 34.7958L132.596 34.8112L132.604 34.8265L135.256 33.4229ZM135.256 116.26L132.604 114.856L132.596 114.871L132.588 114.887L135.256 116.26ZM111.745 140.21L110.261 137.603L110.253 137.607L110.245 137.612L111.745 140.21ZM8.69336 116.26L6.042 117.663L6.05001 117.679L6.05819 117.694L8.69336 116.26ZM58.791 105.713L57.057 108.161L57.1145 108.202L57.1739 108.24L58.791 105.713ZM85.3779 105.713L87.0911 108.176L87.1265 108.151L87.1611 108.125L85.3779 105.713ZM92.8486 96.0449L90.1072 94.8265L90.0881 94.8695L90.0704 94.913L92.8486 96.0449ZM92.8486 53.6377L90.0704 54.7696L90.0881 54.8131L90.1072 54.8561L92.8486 53.6377ZM85.1582 44.1895L83.4242 46.6375L83.4588 46.6621L83.4941 46.6856L85.1582 44.1895ZM58.791 44.1895L60.4551 46.6856L60.4904 46.6621L60.5251 46.6375L58.791 44.1895ZM160.524 213.599L157.889 212.165L157.881 212.18L157.873 212.195L160.524 213.599ZM184.475 189.648L183.006 187.033L182.998 187.037L182.99 187.041L184.475 189.648ZM263.796 189.648L262.296 192.246L262.304 192.251L262.311 192.255L263.796 189.648ZM287.307 213.599L284.639 214.972L284.647 214.987L284.655 215.002L287.307 213.599ZM287.307 296.436L284.655 295.032L284.647 295.047L284.639 295.063L287.307 296.436ZM264.016 320.386L262.515 317.788L264.016 320.386ZM160.524 296.436L157.873 297.839L157.881 297.854L157.889 297.869L160.524 296.436ZM212.38 285.889L210.693 288.369L210.728 288.393L210.763 288.415L212.38 285.889ZM239.406 285.889L241.171 288.315L241.18 288.308L241.189 288.301L239.406 285.889ZM245.998 276.221L243.122 275.368L243.107 275.418L243.094 275.468L245.998 276.221ZM237.209 224.365L235.475 226.813L235.51 226.838L235.545 226.861L237.209 224.365ZM210.842 224.365L212.506 226.861L212.541 226.838L212.576 226.813L210.842 224.365ZM242.482 51.001L245.027 52.5906L246.77 49.8001L243.831 48.3211L242.482 51.001ZM86.2568 301.05L84.9084 303.73L87.3518 304.959L88.8011 302.639L86.2568 301.05ZM51.7598 283.691L49.2155 282.102L47.4721 284.892L50.4113 286.371L51.7598 283.691ZM207.985 33.6426L209.334 30.9627L206.89 29.7332L205.441 32.053L207.985 33.6426ZM3.7832 83.5205V66.6016H-2.2168V83.5205H3.7832ZM3.7832 66.6016C3.7832 54.8932 6.31803 44.3214 11.3447 34.8265L6.042 32.0192C0.521813 42.4462 -2.2168 53.9936 -2.2168 66.6016H3.7832ZM11.3447 34.8265C16.3308 25.4083 23.8171 17.826 33.9083 12.0796L30.9393 6.8657C19.9368 13.131 11.6028 21.5155 6.042 32.0192L11.3447 34.8265ZM33.9083 12.0796C43.8896 6.39587 56.4535 3.46387 71.7549 3.46387V-2.53613C55.7086 -2.53613 42.0519 0.537726 30.9393 6.8657L33.9083 12.0796ZM71.7549 3.46387C87.5125 3.46387 100.291 6.40223 110.261 12.0796L113.23 6.8657C102.106 0.531363 88.2238 -2.53613 71.7549 -2.53613V3.46387ZM110.261 12.0796C120.346 17.8226 127.75 25.3954 132.588 34.7958L137.923 32.0499C132.508 21.5284 124.238 13.1344 113.23 6.8657L110.261 12.0796ZM132.604 34.8265C137.631 44.3214 140.166 54.8932 140.166 66.6016H146.166C146.166 53.9936 143.427 42.4462 137.907 32.0192L132.604 34.8265ZM140.166 66.6016V83.5205H146.166V66.6016H140.166ZM140.166 83.5205C140.166 94.9231 137.637 105.351 132.604 114.856L137.907 117.663C143.422 107.247 146.166 95.8484 146.166 83.5205H140.166ZM132.588 114.887C127.75 124.287 120.346 131.86 110.261 137.603L113.23 142.817C124.238 136.548 132.508 128.154 137.923 117.633L132.588 114.887ZM110.245 137.612C100.423 143.284 87.8699 146.219 72.4141 146.219V152.219C88.5988 152.219 102.266 149.148 113.245 142.808L110.245 137.612ZM72.4141 146.219C56.8085 146.219 44.1018 143.282 34.1281 137.603L31.159 142.817C42.2791 149.149 56.0861 152.219 72.4141 152.219V146.219ZM34.1281 137.603C24.0309 131.853 16.4627 124.262 11.3285 114.826L6.05819 117.694C11.7639 128.18 20.1624 136.555 31.159 142.817L34.1281 137.603ZM11.3447 114.856C6.31238 105.351 3.7832 94.9231 3.7832 83.5205H-2.2168C-2.2168 95.8484 0.527463 107.247 6.042 117.663L11.3447 114.856ZM45.2441 66.6016V83.5205H51.2441V66.6016H45.2441ZM45.2441 83.5205C45.2441 88.3282 46.2085 92.9187 48.1394 97.2633L53.6223 94.8265C52.0376 91.261 51.2441 87.5019 51.2441 83.5205H45.2441ZM48.1394 97.2633C50.1153 101.709 53.0989 105.357 57.057 108.161L60.5251 103.265C57.4518 101.088 55.1621 98.291 53.6223 94.8265L48.1394 97.2633ZM57.1739 108.24C61.4128 110.953 66.4706 112.229 72.1943 112.229V106.229C67.3712 106.229 63.4935 105.161 60.4082 103.186L57.1739 108.24ZM72.1943 112.229C78.0328 112.229 83.0805 110.966 87.0911 108.176L83.6647 103.25C80.9371 105.148 77.1957 106.229 72.1943 106.229V112.229ZM87.1611 108.125C90.9822 105.301 93.812 101.632 95.6269 97.1768L90.0704 94.913C88.6626 98.3684 86.512 101.144 83.5948 103.3L87.1611 108.125ZM95.5901 97.2633C97.521 92.9187 98.4854 88.3282 98.4854 83.5205H92.4854C92.4854 87.5019 91.6919 91.261 90.1072 94.8265L95.5901 97.2633ZM98.4854 83.5205V66.6016H92.4854V83.5205H98.4854ZM98.4854 66.6016C98.4854 61.5296 97.5321 56.7889 95.5901 52.4193L90.1072 54.8561C91.6808 58.3966 92.4854 62.2985 92.4854 66.6016H98.4854ZM95.6269 52.5058C93.7917 48.0011 90.8432 44.3739 86.8223 41.6933L83.4941 46.6856C86.5045 48.6925 88.6829 51.3641 90.0704 54.7696L95.6269 52.5058ZM86.8923 41.7414C82.7523 38.8089 77.6347 37.4541 71.7549 37.4541V43.4541C76.7149 43.4541 80.5329 44.5895 83.4242 46.6375L86.8923 41.7414ZM71.7549 37.4541C66.1276 37.4541 61.17 38.828 57.057 41.7414L60.5251 46.6375C63.4433 44.5704 67.1282 43.4541 71.7549 43.4541V37.4541ZM57.1269 41.6933C53.1264 44.3603 50.1221 47.9582 48.1394 52.4193L53.6223 54.8561C55.1552 51.407 57.4244 48.7061 60.4551 46.6856L57.1269 41.6933ZM48.1394 52.4193C46.1974 56.7889 45.2441 61.5296 45.2441 66.6016H51.2441C51.2441 62.2985 52.0487 58.3966 53.6223 54.8561L48.1394 52.4193ZM155.614 263.477V246.558H149.614V263.477H155.614ZM155.614 246.558C155.614 235.002 158.146 224.502 163.176 215.002L157.873 212.195C152.356 222.617 149.614 234.09 149.614 246.558H155.614ZM163.16 215.032C168.294 205.597 175.862 198.005 185.959 192.255L182.99 187.041C171.993 193.303 163.595 201.679 157.889 212.165L163.16 215.032ZM185.944 192.264C196.08 186.571 208.726 183.64 224.025 183.64V177.64C207.977 177.64 194.256 180.714 183.006 187.033L185.944 192.264ZM224.025 183.64C239.786 183.64 252.481 186.579 262.296 192.246L265.296 187.05C254.31 180.706 240.492 177.64 224.025 177.64V183.64ZM262.311 192.255C272.397 197.998 279.801 205.571 284.639 214.972L289.974 212.226C284.559 201.704 276.289 193.31 265.28 187.041L262.311 192.255ZM284.655 215.002C289.685 224.502 292.217 235.002 292.217 246.558H298.217C298.217 234.09 295.475 222.617 289.958 212.195L284.655 215.002ZM292.217 246.558V263.477H298.217V246.558H292.217ZM292.217 263.477C292.217 275.032 289.685 285.532 284.655 295.032L289.958 297.839C295.475 287.417 298.217 275.945 298.217 263.477H292.217ZM284.639 295.063C279.795 304.474 272.455 312.048 262.515 317.788L265.516 322.984C276.377 316.712 284.564 308.319 289.974 297.808L284.639 295.063ZM262.515 317.788C252.694 323.46 240.14 326.395 224.685 326.395V332.395C240.869 332.395 254.537 329.324 265.516 322.984L262.515 317.788ZM224.685 326.395C209.081 326.395 196.293 323.459 186.163 317.77L183.225 323.001C194.483 329.324 208.354 332.395 224.685 332.395V326.395ZM186.163 317.77C175.92 312.017 168.288 304.426 163.16 295.002L157.889 297.869C163.601 308.367 172.081 316.743 183.225 323.001L186.163 317.77ZM163.176 295.032C158.146 285.532 155.614 275.032 155.614 263.477H149.614C149.614 275.945 152.356 287.417 157.873 297.839L163.176 295.032ZM197.295 246.558V263.477H203.295V246.558H197.295ZM197.295 263.477C197.295 268.525 198.523 273.275 200.968 277.678L206.213 274.764C204.265 271.256 203.295 267.51 203.295 263.477H197.295ZM200.968 277.678C203.388 282.033 206.635 285.61 210.693 288.369L214.067 283.408C210.801 281.187 208.188 278.318 206.213 274.764L200.968 277.678ZM210.763 288.415C214.913 291.072 219.504 292.404 224.465 292.404V286.404C220.637 286.404 217.171 285.393 213.997 283.362L210.763 288.415ZM224.465 292.404C231.442 292.404 237.189 291.211 241.171 288.315L237.642 283.462C235.179 285.254 230.964 286.404 224.465 286.404V292.404ZM241.189 288.301C245.096 285.414 247.699 281.612 248.902 276.974L243.094 275.468C242.246 278.74 240.455 281.383 237.623 283.476L241.189 288.301ZM248.874 277.073C250.136 272.815 250.756 268.277 250.756 263.477H244.756C244.756 267.758 244.204 271.716 243.122 275.368L248.874 277.073ZM250.756 263.477V246.558H244.756V263.477H250.756ZM250.756 246.558C250.756 241.618 249.797 236.953 247.861 232.595L242.378 235.032C243.957 238.585 244.756 242.415 244.756 246.558H250.756ZM247.861 232.595C245.878 228.134 242.874 224.536 238.873 221.869L235.545 226.861C238.576 228.882 240.845 231.583 242.378 235.032L247.861 232.595ZM238.943 221.917C234.816 218.994 229.779 217.63 224.025 217.63V223.63C228.819 223.63 232.57 224.756 235.475 226.813L238.943 221.917ZM224.025 217.63C218.272 217.63 213.235 218.994 209.108 221.917L212.576 226.813C215.48 224.756 219.232 223.63 224.025 223.63V217.63ZM209.178 221.869C205.177 224.536 202.173 228.134 200.19 232.595L205.673 235.032C207.206 231.583 209.475 228.882 212.506 226.861L209.178 221.869ZM200.19 232.595C198.254 236.953 197.295 241.618 197.295 246.558H203.295C203.295 242.415 204.094 238.585 205.673 235.032L200.19 232.595ZM239.938 49.4114L83.7126 299.46L88.8011 302.639L245.027 52.5906L239.938 49.4114ZM87.6053 298.37L53.1082 281.012L50.4113 286.371L84.9084 303.73L87.6053 298.37ZM54.304 285.281L210.53 35.2322L205.441 32.053L49.2155 282.102L54.304 285.281ZM206.637 36.3224L241.134 53.6808L243.831 48.3211L209.334 30.9627L206.637 36.3224Z" fill="white"/>
</svg>
