<svg width="974" height="224" viewBox="0 0 974 224" fill="none" xmlns="http://www.w3.org/2000/svg">
<path fill-rule="evenodd" clip-rule="evenodd" d="M32.0785 90.0001L2.76416 1.7501H29.33L46.699 56.0149L64.9311 1.7501H88.2813L105.825 56.9037L124.027 1.7501H148.934L119.773 90.0001H92.9713L76.1047 37.58L58.874 90.0001H32.0785ZM76.1148 34.3467L93.7001 89.0001H119.05L147.55 2.7501H124.75L105.808 60.1476L87.5501 2.7501H65.6501L46.676 59.2233L28.6001 2.7501H4.15006L32.8001 89.0001H58.1501L76.1148 34.3467ZM185.804 36.6501H225.104V53.9001H185.804V70.8501H231.854V89.0001H162.404V2.7501H230.204V20.9001H185.804V36.6501ZM186.804 21.9001H231.204V1.7501H161.404V90.0001H232.854V69.8501H186.804V54.9001H226.104V35.6501H186.804V21.9001ZM248.122 90.0001V1.7501H273.822V69.5501H315.972V90.0001H248.122ZM272.822 70.5501V2.7501H249.122V89.0001H314.972V70.5501H272.822ZM342.658 85.8333L342.65 85.8294C335.304 81.8503 329.474 76.4326 325.179 69.5812L325.176 69.5756C320.871 62.6056 318.727 54.7211 318.727 45.9501C318.727 37.0841 320.869 29.1982 325.176 22.3246C329.47 15.3713 335.303 9.94954 342.655 6.06808C350.116 2.08228 358.531 0.100098 367.877 0.100098C376.074 0.100098 383.304 1.36435 389.547 3.92102C395.922 6.39086 401.362 10.5042 405.863 16.2323L406.437 16.963L389.676 32.2455L389.007 31.4381C386.183 28.0297 383.091 25.5276 379.74 23.8996C376.383 22.2693 372.734 21.4501 368.777 21.4501C364.032 21.4501 359.858 22.5136 356.228 24.6155L356.219 24.6205L356.21 24.6253C352.574 26.6348 349.707 29.4516 347.597 33.0921C345.595 36.7183 344.577 40.9934 344.577 45.9501C344.577 50.8031 345.594 55.0292 347.597 58.6581C349.708 62.2999 352.578 65.1697 356.219 67.2799C359.851 69.2847 364.028 70.3001 368.777 70.3001C372.734 70.3001 376.383 69.4809 379.74 67.8506C383.091 66.2226 386.183 63.7205 389.007 60.3121L389.676 59.5047L406.443 74.7928L405.857 75.5248C401.357 81.1509 395.92 85.2589 389.553 87.8267C383.309 90.3851 376.077 91.6501 367.877 91.6501C358.535 91.6501 350.124 89.7197 342.665 85.8371L342.658 85.8333ZM355.727 68.1501C351.927 65.9501 348.927 62.9501 346.727 59.1501C344.627 55.3501 343.577 50.9501 343.577 45.9501C343.577 40.8501 344.627 36.4001 346.727 32.6001C348.927 28.8001 351.927 25.8501 355.727 23.7501C359.527 21.5501 363.877 20.4501 368.777 20.4501C372.877 20.4501 376.677 21.3001 380.177 23.0001C383.418 24.5743 386.402 26.9204 389.128 30.0381C389.346 30.2872 389.562 30.5412 389.777 30.8001L405.077 16.8501C400.677 11.2501 395.377 7.2501 389.177 4.85009C383.077 2.3501 375.977 1.1001 367.877 1.1001C358.677 1.1001 350.427 3.0501 343.127 6.9501C335.927 10.7501 330.227 16.0501 326.027 22.8501C321.827 29.5501 319.727 37.2501 319.727 45.9501C319.727 54.5501 321.827 62.2501 326.027 69.0501C330.227 75.7501 335.927 81.0501 343.127 84.9501C350.427 88.7501 358.677 90.6501 367.877 90.6501C375.977 90.6501 383.077 89.4001 389.177 86.9001C395.377 84.4001 400.677 80.4001 405.077 74.9001L389.777 60.9501C389.562 61.209 389.346 61.463 389.128 61.7121C386.402 64.8299 383.418 67.1759 380.177 68.7501C376.677 70.4501 372.877 71.3001 368.777 71.3001C363.877 71.3001 359.527 70.2501 355.727 68.1501ZM434.514 85.8371L434.505 85.8322C427.055 81.852 421.171 76.3814 416.875 69.4256C412.57 62.4556 410.426 54.571 410.426 45.8001C410.426 37.0293 412.57 29.192 416.879 22.319C421.176 15.4642 427.058 10.0463 434.505 6.06808C441.967 2.08145 450.432 0.100098 459.876 0.100098C469.32 0.100098 477.785 2.08145 485.247 6.06808C492.693 10.0463 498.576 15.4642 502.873 22.319C507.182 29.192 509.326 37.0293 509.326 45.8001C509.326 54.571 507.182 62.4556 502.877 69.4256C498.58 76.3814 492.697 81.852 485.247 85.8321L485.238 85.8372C477.777 89.7205 469.315 91.6501 459.876 91.6501C450.436 91.6501 441.974 89.7205 434.514 85.8371ZM471.965 24.6096L471.954 24.6034C468.532 22.512 464.518 21.4501 459.876 21.4501C455.339 21.4501 451.318 22.5099 447.787 24.6096C444.24 26.7188 441.412 29.5911 439.297 33.2421C437.291 36.8738 436.276 41.0508 436.276 45.8001C436.276 50.5488 437.291 54.78 439.302 58.5172C441.417 62.2645 444.241 65.1805 447.779 67.2857C451.311 69.2881 455.334 70.3001 459.876 70.3001C464.524 70.3001 468.544 69.285 471.968 67.2884C475.506 65.184 478.279 62.27 480.295 58.526C482.31 54.7837 483.326 50.5988 483.326 45.9501C483.326 41.0934 482.307 36.8646 480.301 33.2338C478.286 29.5878 475.511 26.7181 471.965 24.6096ZM472.476 68.1501C468.876 70.2501 464.676 71.3001 459.876 71.3001C455.176 71.3001 450.976 70.2501 447.276 68.1501C443.576 65.9501 440.626 62.9001 438.426 59.0001C436.326 55.1001 435.276 50.7001 435.276 45.8001C435.276 40.9001 436.326 36.5501 438.426 32.7501C440.626 28.9501 443.576 25.9501 447.276 23.7501C450.976 21.5501 455.176 20.4501 459.876 20.4501C464.676 20.4501 468.876 21.5501 472.476 23.7501C476.176 25.9501 479.076 28.9501 481.176 32.7501C483.276 36.5501 484.326 40.9501 484.326 45.9501C484.326 50.7501 483.276 55.1001 481.176 59.0001C479.076 62.9001 476.176 65.9501 472.476 68.1501ZM524.099 90.0001V1.7501H545.458L575.739 50.9885L605.384 1.7501H626.895L627.202 90.0001H603.002L602.874 45.4416L581.311 80.8501H569.547L548.149 46.872V90.0001H524.099ZM547.149 43.4075L570.099 79.8501H580.749L603.864 41.8935L603.999 89.0001H626.199L625.899 2.7501H605.949L575.748 52.9122L544.899 2.7501H525.099V89.0001H547.149V43.4075ZM672.571 36.6501H711.871V53.9001H672.571V70.8501H718.621V89.0001H649.171V2.7501H716.971V20.9001H672.571V36.6501ZM673.571 21.9001H717.971V1.7501H648.171V90.0001H719.621V69.8501H673.571V54.9001H712.871V35.6501H673.571V21.9001ZM434.976 84.9501C442.276 88.7501 450.576 90.6501 459.876 90.6501C469.176 90.6501 477.476 88.7501 484.776 84.9501C492.076 81.0501 497.826 75.7001 502.026 68.9001C506.226 62.1001 508.326 54.4001 508.326 45.8001C508.326 37.2001 506.226 29.5501 502.026 22.8501C497.826 16.1501 492.076 10.8501 484.776 6.9501C477.476 3.0501 469.176 1.1001 459.876 1.1001C450.576 1.1001 442.276 3.0501 434.976 6.9501C427.676 10.8501 421.926 16.1501 417.726 22.8501C413.526 29.5501 411.426 37.2001 411.426 45.8001C411.426 54.4001 413.526 62.1001 417.726 68.9001C421.926 75.7001 427.676 81.0501 434.976 84.9501Z" fill="white" fill-opacity="0.4"/>
<path fill-rule="evenodd" clip-rule="evenodd" d="M27.7501 222V154.2H0.600098V133.75H80.6001V154.2H53.4501V222H27.7501ZM52.4501 153.2H79.6001V134.75H1.6001V153.2H28.7501V221H52.4501V153.2ZM107.122 217.837L107.112 217.832C99.6621 213.852 93.7787 208.381 89.4825 201.426C85.1775 194.456 83.0333 186.571 83.0333 177.8C83.0333 169.029 85.1775 161.192 89.486 154.319C93.783 147.464 99.6657 142.046 107.112 138.068C114.574 134.081 123.04 132.1 132.483 132.1C141.927 132.1 150.392 134.081 157.855 138.068C165.301 142.046 171.184 147.464 175.481 154.319C179.789 161.192 181.933 169.029 181.933 177.8C181.933 186.571 179.789 194.456 175.484 201.426C171.188 208.381 165.305 213.852 157.855 217.832L157.845 217.837C150.385 221.721 141.923 223.65 132.483 223.65C123.044 223.65 114.582 221.721 107.122 217.837ZM144.572 156.61L144.562 156.603C141.14 154.512 137.125 153.45 132.483 153.45C127.946 153.45 123.926 154.51 120.394 156.61C116.847 158.719 114.019 161.591 111.904 165.242C109.899 168.874 108.883 173.051 108.883 177.8C108.883 182.549 109.899 186.78 111.909 190.517C114.025 194.264 116.849 197.18 120.386 199.285C123.918 201.288 127.942 202.3 132.483 202.3C137.132 202.3 141.151 201.285 144.576 199.288C148.114 197.184 150.887 194.27 152.903 190.526C154.918 186.784 155.933 182.599 155.933 177.95C155.933 173.093 154.915 168.865 152.908 165.234C150.893 161.588 148.118 158.718 144.572 156.61ZM145.083 200.15C141.483 202.25 137.283 203.3 132.483 203.3C127.783 203.3 123.583 202.25 119.883 200.15C116.183 197.95 113.233 194.9 111.033 191C108.933 187.1 107.883 182.7 107.883 177.8C107.883 172.9 108.933 168.55 111.033 164.75C113.233 160.95 116.183 157.95 119.883 155.75C123.583 153.55 127.783 152.45 132.483 152.45C137.283 152.45 141.483 153.55 145.083 155.75C148.783 157.95 151.683 160.95 153.783 164.75C155.883 168.55 156.933 172.95 156.933 177.95C156.933 182.75 155.883 187.1 153.783 191C151.683 194.9 148.783 197.95 145.083 200.15ZM295.872 157.631C292.239 155.503 288.477 153.976 284.587 153.05C280.487 152.05 276.387 151.55 272.287 151.55C267.287 151.55 263.637 152.3 261.337 153.8C259.037 155.3 257.887 157.2 257.887 159.5C257.887 161.5 258.787 163.1 260.587 164.3C262.387 165.5 264.737 166.5 267.637 167.3C270.637 168 273.937 168.7 277.537 169.4C281.137 170.1 284.687 171 288.187 172.1C291.687 173.1 294.937 174.5 297.937 176.3C300.937 178.1 303.337 180.5 305.137 183.5C306.937 186.4 307.837 190.15 307.837 194.75C307.837 200.15 306.287 204.95 303.187 209.15C300.187 213.35 295.787 216.65 289.987 219.05C284.287 221.45 277.237 222.65 268.837 222.65C261.937 222.65 255.137 221.8 248.437 220.1C241.837 218.4 236.487 216.15 232.387 213.35L240.637 195.8C240.916 195.986 241.198 196.169 241.484 196.349C245.191 198.691 249.459 200.557 254.287 201.95C259.487 203.45 264.787 204.2 270.187 204.2C275.487 204.2 279.187 203.45 281.287 201.95C283.387 200.45 284.437 198.7 284.437 196.7C284.437 194.7 283.487 193.1 281.587 191.9C279.787 190.7 277.387 189.75 274.387 189.05C271.487 188.25 268.237 187.5 264.637 186.8C261.137 186.1 257.587 185.2 253.987 184.1C250.487 183 247.237 181.55 244.237 179.75C241.337 177.85 238.937 175.4 237.037 172.4C235.237 169.3 234.337 165.45 234.337 160.85C234.337 155.45 235.887 150.7 238.987 146.6C242.187 142.4 246.687 139.1 252.487 136.7C258.287 134.3 265.187 133.1 273.187 133.1C278.587 133.1 284.087 133.7 289.687 134.9C295.287 136.1 300.187 138 304.387 140.6L296.737 158.15C296.449 157.973 296.161 157.8 295.872 157.631ZM303.996 209.738C300.866 214.117 296.303 217.518 290.372 219.973C284.514 222.439 277.324 223.65 268.837 223.65C261.854 223.65 254.971 222.79 248.191 221.069L248.187 221.069C241.514 219.35 236.047 217.061 231.823 214.176L231.119 213.696L240.226 194.324L241.192 194.968C244.994 197.503 249.448 199.513 254.564 200.989C259.674 202.463 264.881 203.2 270.187 203.2C275.459 203.2 278.879 202.441 280.706 201.136C282.627 199.764 283.437 198.286 283.437 196.7C283.437 195.091 282.705 193.789 281.053 192.746L281.042 192.739L281.032 192.732C279.365 191.62 277.088 190.707 274.16 190.024L274.14 190.019L274.121 190.014C271.25 189.222 268.026 188.478 264.446 187.782L264.441 187.781C260.907 187.074 257.324 186.166 253.695 185.056L253.687 185.054C250.116 183.932 246.793 182.45 243.722 180.608L243.705 180.597L243.689 180.587C240.667 178.606 238.166 176.053 236.192 172.935L236.182 172.919L236.172 172.902C234.262 169.612 233.337 165.578 233.337 160.85C233.337 155.244 234.951 150.28 238.189 145.997L238.191 145.994C241.517 141.629 246.172 138.231 252.104 135.776C258.054 133.314 265.09 132.1 273.187 132.1C278.661 132.1 284.232 132.708 289.896 133.922C295.591 135.143 300.601 137.081 304.913 139.75L305.65 140.206L297.193 159.605L296.213 159.002C292.398 156.654 288.446 154.997 284.355 154.023L284.35 154.022C280.325 153.04 276.305 152.55 272.287 152.55C267.344 152.55 263.935 153.3 261.883 154.638C259.803 155.994 258.887 157.607 258.887 159.5C258.887 161.135 259.593 162.436 261.142 163.468C262.822 164.588 265.058 165.55 267.884 166.331C270.864 167.026 274.145 167.722 277.728 168.418C281.36 169.125 284.942 170.033 288.474 171.142C292.05 172.165 295.377 173.598 298.451 175.443C301.59 177.326 304.107 179.842 305.991 182.98C307.915 186.084 308.837 190.03 308.837 194.75C308.837 200.353 307.224 205.361 303.996 209.738ZM321.804 222V133.75H362.104C370.204 133.75 377.2 135.065 383.059 137.736C389.009 140.302 393.664 144.016 396.981 148.887C400.313 153.781 401.954 159.686 401.954 166.55C401.954 173.221 400.309 179.024 396.981 183.913C394.026 188.252 390.011 191.672 384.964 194.182L404.53 222H376.581L360.554 198.9H347.504V222H321.804ZM346.504 197.9H361.078L377.104 221H402.604L383.465 193.789C383.775 193.647 384.08 193.502 384.382 193.354C389.355 190.907 393.279 187.573 396.154 183.35C399.354 178.65 400.954 173.05 400.954 166.55C400.954 159.85 399.354 154.15 396.154 149.45C392.954 144.75 388.454 141.15 382.654 138.65C376.954 136.05 370.104 134.75 362.104 134.75H322.804V221H346.504V197.9ZM360.454 179.9C365.954 179.9 370.104 178.75 372.904 176.45C375.704 174.05 377.104 170.75 377.104 166.55C377.104 162.25 375.704 158.95 372.904 156.65C370.104 154.35 365.954 153.2 360.454 153.2H346.504V179.9H360.454ZM347.504 178.9H360.454C365.832 178.9 369.712 177.774 372.261 175.684C374.802 173.502 376.104 170.499 376.104 166.55C376.104 162.487 374.794 159.497 372.269 157.423C369.72 155.329 365.837 154.2 360.454 154.2H347.504V178.9ZM418.337 222V133.75H444.037V222H418.337ZM507.4 222V133.75H533.1V201.55H575.25V217.439L612.8 133.75H637.494L677.245 222H651.63L644.536 204.9H605.558L598.362 222H507.4ZM574.25 221V202.55H532.1V134.75H508.4V221H574.25ZM597.698 221L604.894 203.9H645.204L652.298 221H675.698L636.848 134.75H613.448L574.748 221H597.698ZM612.091 186.8H638.111L625.194 155.663L612.091 186.8ZM625.188 158.257L613.596 185.8H636.613L625.188 158.257ZM684.939 222V133.75H705.907L744.189 179.711V133.75H769.439V222H748.471L710.189 176.179V222H684.939ZM709.189 173.422L748.939 221H768.439V134.75H745.189V182.475L705.439 134.75H685.939V221H709.189V173.422ZM814.954 171.483L850.054 134.75H876.154L840.354 173.128L873.538 215.209L909.639 134.75H933.039L971.889 221H948.489L941.396 203.9H901.086L893.889 221H850.504L824.633 189.159L814.954 199.294V221H791.554V134.75H814.954V171.483ZM815.954 168.989V133.75H790.554V222H815.954V199.695L824.573 190.671L850.028 222H894.553L901.75 204.9H940.728L947.821 222H973.436L933.686 133.75H908.992L873.301 213.294L841.67 173.183L878.454 133.75H849.626L815.954 168.989ZM921.386 155.663L908.282 186.8H934.302L921.386 155.663ZM932.805 185.8L921.379 158.257L909.788 185.8H932.805ZM107.583 216.95C114.883 220.75 123.183 222.65 132.483 222.65C141.783 222.65 150.083 220.75 157.383 216.95C164.683 213.05 170.433 207.7 174.633 200.9C178.833 194.1 180.933 186.4 180.933 177.8C180.933 169.2 178.833 161.55 174.633 154.85C170.433 148.15 164.683 142.85 157.383 138.95C150.083 135.05 141.783 133.1 132.483 133.1C123.183 133.1 114.883 135.05 107.583 138.95C100.283 142.85 94.5333 148.15 90.3333 154.85C86.1333 161.55 84.0333 169.2 84.0333 177.8C84.0333 186.4 86.1333 194.1 90.3333 200.9C94.5333 207.7 100.283 213.05 107.583 216.95ZM419.337 221H443.037V134.75H419.337V221Z" fill="white" fill-opacity="0.4"/>
</svg>
