<?xml version="1.0" encoding="iso-8859-1"?>
<!-- Uploaded to: SVG Repo, www.svgrepo.com, Generator: SVG Repo Mixer Tools -->
<svg height="800px" width="800px" version="1.1" id="Layer_1" xmlns="http://www.w3.org/2000/svg" xmlns:xlink="http://www.w3.org/1999/xlink" 
	 viewBox="0 0 511.999 511.999" xml:space="preserve">
<g>
	<path style="fill:#668018;" d="M501.775,261.422c-0.251,0-0.504-0.011-0.759-0.034l-19.148-1.733
		c-4.57-0.414-7.94-4.454-7.526-9.024c0.414-4.57,4.454-7.944,9.024-7.525l19.148,1.732c4.57,0.414,7.94,4.454,7.526,9.024
		C509.651,258.176,506.026,261.422,501.775,261.422z"/>
	<path style="fill:#668018;" d="M503.696,302.514c-0.675,0-1.36-0.083-2.043-0.256l-18.411-4.655
		c-4.45-1.124-7.143-5.643-6.02-10.091c1.126-4.45,5.654-7.142,10.091-6.019l18.411,4.655c4.45,1.124,7.143,5.643,6.02,10.091
		C510.793,300.004,507.409,302.514,503.696,302.514z"/>
	<path style="fill:#668018;" d="M482.464,337.753c-1.092,0-2.201-0.217-3.269-0.675l-17.672-7.576
		c-4.219-1.808-6.17-6.693-4.363-10.911c1.81-4.217,6.694-6.173,10.911-4.363l17.672,7.576c4.219,1.808,6.17,6.693,4.363,10.911
		C488.754,335.865,485.687,337.753,482.464,337.753z"/>
	<path style="fill:#668018;" d="M253.103,510.074c-4.251,0-7.874-3.245-8.265-7.561l-1.732-19.15
		c-0.413-4.57,2.957-8.61,7.526-9.024c4.559-0.4,8.61,2.956,9.024,7.526l1.732,19.15c0.413,4.57-2.957,8.61-7.526,9.024
		C253.607,510.063,253.354,510.074,253.103,510.074z"/>
	<path style="fill:#668018;" d="M294.197,511.999c-3.714,0-7.097-2.509-8.049-6.275l-4.655-18.411
		c-1.124-4.449,1.57-8.967,6.019-10.091c4.446-1.127,8.968,1.569,10.092,6.019l4.655,18.411c1.124,4.449-1.57,8.967-6.019,10.091
		C295.558,511.916,294.872,511.999,294.197,511.999z"/>
	<path style="fill:#668018;" d="M329.448,490.778c-3.224,0-6.29-1.887-7.641-5.036l-7.577-17.672
		c-1.808-4.217,0.145-9.102,4.362-10.911c4.219-1.809,9.102,0.145,10.911,4.363l7.577,17.672c1.808,4.217-0.145,9.102-4.363,10.911
		C331.65,490.561,330.539,490.778,329.448,490.778z"/>
	<path style="fill:#668018;" d="M260.61,37.692c-4.251,0-7.874-3.245-8.265-7.561l-1.732-19.149c-0.413-4.57,2.957-8.61,7.526-9.024
		c4.561-0.408,8.61,2.956,9.024,7.526l1.731,19.149c0.413,4.57-2.957,8.61-7.526,9.024C261.114,37.68,260.861,37.692,260.61,37.692z
		"/>
	<path style="fill:#668018;" d="M222.445,35.031c-3.714,0-7.097-2.509-8.049-6.275l-4.655-18.409
		c-1.124-4.449,1.57-8.967,6.019-10.091c4.453-1.127,8.969,1.57,10.092,6.019l4.655,18.411c1.124,4.449-1.57,8.967-6.019,10.091
		C223.804,34.949,223.119,35.031,222.445,35.031z"/>
	<path style="fill:#668018;" d="M190.139,55.514c-3.224,0-6.29-1.887-7.641-5.036l-7.577-17.672
		c-1.808-4.217,0.145-9.102,4.363-10.911s9.102,0.145,10.911,4.363l7.577,17.672c1.808,4.217-0.145,9.102-4.363,10.911
		C192.341,55.297,191.23,55.514,190.139,55.514z"/>
	<path style="fill:#668018;" d="M29.392,268.928c-0.251,0-0.504-0.011-0.759-0.034l-19.148-1.732
		c-4.57-0.414-7.94-4.454-7.526-9.024c0.413-4.571,4.457-7.932,9.024-7.526l19.148,1.733c4.57,0.414,7.94,4.454,7.526,9.024
		C37.268,265.682,33.643,268.928,29.392,268.928z"/>
	<path style="fill:#668018;" d="M26.728,230.761c-0.675,0-1.36-0.083-2.043-0.256L6.275,225.85c-4.45-1.124-7.143-5.643-6.02-10.091
		c1.126-4.45,5.653-7.143,10.091-6.019l18.411,4.655c4.45,1.124,7.143,5.643,6.02,10.091
		C33.825,228.252,30.443,230.761,26.728,230.761z"/>
	<path style="fill:#668018;" d="M47.2,198.444c-1.092,0-2.201-0.216-3.269-0.675l-17.672-7.576
		c-4.219-1.808-6.17-6.693-4.363-10.911c1.81-4.217,6.693-6.169,10.911-4.363l17.672,7.576c4.219,1.808,6.17,6.693,4.363,10.911
		C53.489,196.557,50.423,198.444,47.2,198.444z"/>
</g>
<g>
	<path style="fill:#CFC8AB;" d="M136.302,375.697c3.456,3.456,7.079,6.691,10.845,9.693l-43.382,43.382
		c-5.672,5.672-14.867,5.672-20.539,0c-5.672-5.672-5.672-14.867,0-20.539l43.382-43.382
		C129.611,368.618,132.846,372.241,136.302,375.697z"/>
	<path style="fill:#CFC8AB;" d="M275.13,97.541l-6.235-68.903c-0.24-2.649-1.733-5.023-4.017-6.386
		c-1.021-0.609-10.426-5.952-26.09-5.952c-5.991,0-12.171,0.794-18.372,2.362c-26.699,6.76-36.995,23.566-37.419,24.279
		c-1.365,2.285-1.551,5.087-0.503,7.533l27.008,62.99c1.348,3.143,4.411,5.036,7.639,5.036l56.165-14.896
		C274.682,101.914,275.331,99.709,275.13,97.541z"/>
	<path style="fill:#CFC8AB;" d="M113.465,209.501l-62.99-27.008c-2.445-1.05-5.247-0.862-7.533,0.503
		c-0.713,0.425-17.518,10.721-24.279,37.423c-6.749,26.694,3.165,43.745,3.59,44.457c1.363,2.284,3.737,3.778,6.386,4.017
		l69.016,6.248c0.25,0.023,0.5,0.034,0.749,0.034c1.948,0,3.843-0.685,5.345-1.948l14.157-53.008
		C119.579,216.033,117.608,211.277,113.465,209.501z"/>
	<path style="fill:#CFC8AB;" d="M329.507,461.524l-27.008-62.99c-1.777-4.143-6.533-6.115-10.719-4.441l-53.008,14.158
		c-1.424,1.695-2.113,3.888-1.914,6.094l6.248,69.016c0.24,2.649,1.733,5.023,4.017,6.385c1.021,0.609,10.426,5.952,26.09,5.952
		c5.991,0,12.171-0.794,18.372-2.362c26.699-6.76,36.995-23.566,37.419-24.279C330.369,466.772,330.555,463.97,329.507,461.524z"/>
	<path style="fill:#CFC8AB;" d="M489.747,247.122c-1.363-2.284-3.737-3.778-6.387-4.017l-68.781-6.224
		c-2.234-0.265-6.209,1.791-6.209,1.791l-14.276,53.107c0,0,0.299,8.941,4.442,10.718l62.99,27.008
		c1.048,0.45,2.162,0.672,3.274,0.672c1.48,0,2.953-0.395,4.26-1.175c0.713-0.425,17.518-10.721,24.279-37.423
		C500.086,264.887,490.172,247.835,489.747,247.122z"/>
	<path style="fill:#CFC8AB;" d="M450.121,61.868c-19.298-19.298-50.604-19.298-69.902,0l-46.45,46.45l69.902,69.891l0.066-0.033
		l46.384-46.395C469.43,112.483,469.43,81.177,450.121,61.868z"/>
</g>
<path style="fill:#8AA92C;" d="M412.987,213.936L295.6,224.963l2.464-125.951c-10.092-1.252-20.528-1.462-31.196-0.609
	c-0.665,0.055-1.318,0.111-1.972,0.177c-16.274,1.507-32.337,5.45-47.757,11.61c-23.463,9.361-45.409,23.851-64.253,42.695
	l66.357,94.333l-120.23,50.845c3.069,24.97,12.452,47.802,27.595,66.789c3.002,3.767,6.237,7.389,9.693,10.845
	c3.456,3.456,7.079,6.691,10.845,9.693c18.988,15.144,41.82,24.527,66.789,27.595l58.243-106.432l86.935,52.56
	c18.844-18.844,33.334-40.789,42.695-64.253c6.159-15.421,10.103-31.484,11.61-47.757c0.066-0.654,0.122-1.307,0.177-1.972
	C414.449,234.463,414.239,224.028,412.987,213.936z"/>
<g>
	<path style="fill:#668018;" d="M98.404,266.867c0.055-0.665,0.111-1.318,0.177-1.972c1.507-16.274,5.45-32.337,11.61-47.757
		c9.361-23.463,23.851-45.409,42.695-64.253l56.675,56.675l-16.994,63.433l-93.554,25.07
		C97.762,287.97,97.551,277.535,98.404,266.867z"/>
	<path style="fill:#668018;" d="M245.133,413.595c-10.668,0.853-21.104,0.643-31.196-0.609l25.07-93.554l63.433-16.994
		l56.675,56.675c-18.844,18.844-40.789,33.334-64.253,42.695c-15.421,6.159-31.484,10.103-47.757,11.61
		C246.451,413.484,245.797,413.54,245.133,413.595z"/>
	<path style="fill:#668018;" d="M412.987,213.936l-93.554,25.07l-46.439-46.439l25.07-93.554
		c12.507,1.529,24.482,4.653,35.704,9.306c15.631,6.447,29.789,15.842,41.93,27.983c12.13,12.13,21.525,26.288,27.972,41.908
		C408.323,189.431,411.458,201.418,412.987,213.936z"/>
</g>
<polygon style="fill:#A3C734;" points="319.433,239.005 302.439,302.438 239.006,319.432 192.567,272.993 209.561,209.56 
	272.994,192.566 "/>
</svg>